<svg width="164" height="136" viewBox="0 0 164 136" fill="none" xmlns="http://www.w3.org/2000/svg">
<path fill-rule="evenodd" clip-rule="evenodd" d="M66.2812 54.6114L65.3263 54.5969L65.4088 48.3898L66.3632 48.4043L66.2812 54.6114Z" fill="#554644"/>
<path fill-rule="evenodd" clip-rule="evenodd" d="M21.4917 109.223C21.4917 109.223 16.2579 97.7773 22.1767 92.632L26.9601 96.8395L21.4917 109.223Z" fill="#DE3A08"/>
<path fill-rule="evenodd" clip-rule="evenodd" d="M41.2905 84.7943C41.2905 84.7943 34.6442 84.4685 31.3518 84.9276C28.06 85.3867 22.121 92.6079 22.121 92.6079L26.8048 96.7797C26.8048 96.7797 34.0166 90.1647 36.8369 90.2101C39.6567 90.2554 41.477 88.5285 41.477 88.5285L41.2905 84.7943Z" fill="#DE3A08"/>
<path fill-rule="evenodd" clip-rule="evenodd" d="M52.5215 83.1744C52.5215 83.1744 42.6393 82.1133 41.3243 84.6475C40.0098 87.1822 41.515 88.4843 41.515 88.4843C41.515 88.4843 50.8573 87.2067 52.7818 86.7117C54.7062 86.2166 52.5215 83.1744 52.5215 83.1744Z" fill="#DE3A08"/>
<path fill-rule="evenodd" clip-rule="evenodd" d="M0.808199 55.6483C0.808199 55.6483 -2.27734 67.1887 3.60936 71.8935L7.25847 67.4838L0.808199 55.6483Z" fill="#DE3A08"/>
<path fill-rule="evenodd" clip-rule="evenodd" d="M21.4298 79.0517C21.4298 79.0517 15.6352 79.725 12.6756 79.4169C9.7155 79.1088 3.45642 71.9477 3.45642 71.9477L6.97288 67.4001C6.97288 67.4001 14.2639 73.8706 16.7362 73.6811C19.2079 73.4921 21.0565 75.1841 21.0565 75.1841L21.4298 79.0517Z" fill="#DE3A08"/>
<path fill-rule="evenodd" clip-rule="evenodd" d="M31.5611 80.03C31.5611 80.03 23.043 81.661 21.5271 79.0578C20.0119 76.4541 21.1462 75.0042 21.1462 75.0042C21.1462 75.0042 29.5252 75.8663 31.284 76.2882C33.0428 76.7102 31.5611 80.03 31.5611 80.03Z" fill="#DE3A08"/>
<path fill-rule="evenodd" clip-rule="evenodd" d="M44.3599 80.8017C44.3599 80.8017 34.2971 81.2585 31.2932 79.9672C31.2932 79.9672 28.7353 77.1996 31.0198 76.4194C33.3042 75.6393 48.7354 75.0042 48.7354 75.0042L44.3599 80.8017Z" fill="#DE3A08"/>
<path fill-rule="evenodd" clip-rule="evenodd" d="M21.2704 56.3396C21.2704 56.3396 15.6442 54.1167 13.0876 52.3738C10.5316 50.6308 8.29541 40.8765 8.29541 40.8765L13.7244 38.3662C13.7244 38.3662 17.2409 47.9842 19.5936 49.0236C21.9464 50.0635 22.8124 52.5497 22.8124 52.5497L21.2704 56.3396Z" fill="#DE3A08"/>
<path fill-rule="evenodd" clip-rule="evenodd" d="M29.9412 62.2155C29.9412 62.2155 21.5874 59.5078 21.4389 56.4021C21.2915 53.2959 22.9744 52.5375 22.9744 52.5375C22.9744 52.5375 30.0512 57.4373 31.4255 58.685C32.7993 59.9326 29.9412 62.2155 29.9412 62.2155Z" fill="#DE3A08"/>
<path fill-rule="evenodd" clip-rule="evenodd" d="M41.4995 69.474C41.4995 69.474 32.0328 64.9627 29.9146 62.2686C29.9146 62.2686 28.9376 58.4002 31.4222 58.7861C33.9058 59.172 48.3899 66.1524 48.3899 66.1524L41.4995 69.474Z" fill="#DE3A08"/>
<path fill-rule="evenodd" clip-rule="evenodd" d="M69.8196 0C69.8196 0 50.0083 1.63665 45.6247 14.3558C45.6247 14.3558 47.1106 18.233 50.6314 17.9596C50.6314 17.9596 54.3981 9.75002 59.3747 6.6808C64.3508 3.61047 69.8196 0 69.8196 0Z" fill="#DE3A08"/>
<path fill-rule="evenodd" clip-rule="evenodd" d="M50.1794 63.5981C50.1794 63.5981 37.1774 51.7076 37.3306 40.6213C37.3306 40.6213 40.3809 37.2925 43.8413 39.4253L43.551 41.2844L47.254 41.8679L46.1039 45.1783L50.1638 45.501L49.3706 48.5505L53.7392 48.9216L52.2804 52.1841L56.6495 52.5552L54.5729 55.7196L59.1047 57.0688L50.1794 63.5981Z" fill="#FF7D43"/>
<path fill-rule="evenodd" clip-rule="evenodd" d="M56.2843 54.4957L58.3681 51.3182L53.9833 50.9449L55.4469 47.6694L51.0621 47.2967L51.8588 44.2344L47.7832 43.9109L48.9376 40.5861L45.2208 40.0002L45.8137 37.2244C42.6512 35.2747 39.5384 38.7713 39.0576 39.2525C40.2755 38.6011 40.9413 37.9866 42.4089 39.7159L43.2011 41.7535L47.3252 41.7658L46.1708 45.0906L50.2459 45.4146L49.4497 48.4769L53.8345 48.8496L52.3703 52.1252L56.7557 52.4984L54.6714 55.676L59.2206 57.0309L60.833 55.8506L56.2843 54.4957Z" fill="#DE3A08"/>
<path fill-rule="evenodd" clip-rule="evenodd" d="M37.1735 40.7857C37.4182 39.227 32.7524 34.3427 38.4293 30.7621L45.279 35.9889C45.279 35.9889 43.8044 39.2707 42.3112 40.6338L37.1735 40.7857Z" fill="#FF6309"/>
<path fill-rule="evenodd" clip-rule="evenodd" d="M37.425 40.7857C37.6727 39.2281 32.4386 34.2651 38.6623 30.7621L46.316 36.1007C46.316 36.1007 44.7352 39.3671 43.1046 40.71L37.425 40.7857Z" fill="#DE3A08"/>
<path fill-rule="evenodd" clip-rule="evenodd" d="M37.1735 40.8153C37.4182 39.252 32.7524 34.3533 38.4293 30.7621L45.279 36.0044C45.279 36.0044 43.7303 39.7648 42.2383 41.1314L37.1735 40.8153Z" fill="#FF6309"/>
<path fill-rule="evenodd" clip-rule="evenodd" d="M36.9836 32.1184C36.9836 32.1184 42.7939 27.4029 41.4395 22.8674C40.0851 18.333 43.2764 14.7354 45.4139 13.1032C45.4139 13.1032 48.8487 17.8327 52.3076 15.3103C55.0019 13.3455 55.4085 11.4109 55.4085 11.4109L57.5459 13.0734L59.126 10.1259L62.0615 11.7138L63.2657 8.05559L66.2157 9.1443L66.638 5.0626L70.0092 5.36549L69.8891 2.76514L73.6217 4.27733C73.6217 4.27733 72.3265 10.928 63.9275 15.7647C55.528 20.6013 54.7455 23.4732 53.2096 28.2201C51.6743 32.9659 45.382 33.8729 45.382 33.8729L36.9836 32.1184Z" fill="#FF7D43"/>
<path fill-rule="evenodd" clip-rule="evenodd" d="M73.3966 5.27862C72.7733 7.1555 70.5867 12.0653 63.9275 15.859C55.528 20.6444 54.7455 23.4858 53.2096 28.1825C51.6743 32.878 45.382 33.7748 45.382 33.7748L36.9836 32.0394C36.9836 32.0394 38.3984 32.9218 39.5724 33.5501C41.0334 34.332 45.3368 35.2555 45.3368 35.2555C45.3368 35.2555 52.4791 34.1489 54.1228 29.526C55.7671 24.9032 56.1217 21.3892 64.8005 16.5771C73.4792 11.7656 73.6217 4.49335 73.6217 4.49335L73.3966 5.27862Z" fill="#DE3A08"/>
<path fill-rule="evenodd" clip-rule="evenodd" d="M69.8196 0C69.8196 0 50.1818 2.25289 45.2791 13.0788C45.2791 13.0788 46.5718 16.2523 50.0607 15.8671C50.0607 15.8671 54.1511 8.83767 59.2039 6.0499C64.2562 3.26267 69.8196 0 69.8196 0Z" fill="#FA6109"/>
<path fill-rule="evenodd" clip-rule="evenodd" d="M62.9407 46.9243C63.1772 45.4157 64.5924 44.385 66.1006 44.6215C67.6093 44.8586 68.6406 46.2738 68.4029 47.7819C68.1664 49.2905 66.7517 50.3212 65.243 50.0841C63.7343 49.8476 62.7036 48.4324 62.9407 46.9243Z" fill="#554644"/>
<path fill-rule="evenodd" clip-rule="evenodd" d="M66.3538 47.187C65.9681 47.4683 65.4275 47.3832 65.1463 46.9976C64.8655 46.6121 64.9501 46.0715 65.3362 45.7903C65.7219 45.5096 66.2619 45.5941 66.5432 45.9802C66.8239 46.3653 66.7394 46.9058 66.3538 47.187Z" fill="white"/>
<path fill-rule="evenodd" clip-rule="evenodd" d="M13.7972 24.1949C13.7972 24.1949 5.19611 33.3222 8.26633 40.4401L13.8256 38.1273L13.7972 24.1949Z" fill="#FF7D43"/>
<path fill-rule="evenodd" clip-rule="evenodd" d="M21.6327 55.3027C21.6327 55.3027 15.8969 53.1594 13.2831 51.4975C10.6694 49.8368 8.29541 40.6641 8.29541 40.6641L13.7807 38.3662C13.7807 38.3662 17.4525 47.4241 19.8523 48.4239C22.2521 49.4227 23.158 51.7642 23.158 51.7642L21.6327 55.3027Z" fill="#FF7C30"/>
<path fill-rule="evenodd" clip-rule="evenodd" d="M30.2605 60.8329C30.2605 60.8329 21.6291 58.2526 21.4436 55.3897C21.2587 52.5268 22.9843 51.8462 22.9843 51.8462C22.9843 51.8462 30.3229 56.4336 31.7513 57.5969C33.1791 58.7607 30.2605 60.8329 30.2605 60.8329Z" fill="#FA6109"/>
<path fill-rule="evenodd" clip-rule="evenodd" d="M41.9008 67.7458C41.9008 67.7458 32.4159 63.4735 30.2762 60.9582C30.2762 60.9582 29.2616 57.3682 31.7421 57.7507C34.2232 58.1332 48.7354 64.7421 48.7354 64.7421L41.9008 67.7458Z" fill="#E86A00"/>
<path fill-rule="evenodd" clip-rule="evenodd" d="M0.813215 54.957C0.813215 54.957 -2.28198 66.2555 3.60465 70.8565L7.25847 66.538L0.813215 54.957Z" fill="#FF7D43"/>
<path fill-rule="evenodd" clip-rule="evenodd" d="M21.4298 77.5982C21.4298 77.5982 15.5951 78.3142 12.6237 78.0607C9.65285 77.8066 3.45642 71.0797 3.45642 71.0797L7.05166 66.7088C7.05166 66.7088 14.2948 72.7653 16.7822 72.553C19.2702 72.3402 21.1054 73.9249 21.1054 73.9249L21.4298 77.5982Z" fill="#FA6109"/>
<path fill-rule="evenodd" clip-rule="evenodd" d="M30.8568 78.2912C30.8568 78.2912 22.566 79.8445 21.1276 77.5563C19.688 75.2674 20.8078 73.9673 20.8078 73.9673C20.8078 73.9673 28.9318 74.6255 30.6342 74.9778C32.3371 75.33 30.8568 78.2912 30.8568 78.2912Z" fill="#FA6109"/>
<path fill-rule="evenodd" clip-rule="evenodd" d="M43.6807 79.0133C43.6807 79.0133 33.8169 79.5963 30.8914 78.371C30.8914 78.371 28.4222 75.6941 30.6697 74.8995C32.9184 74.1049 48.0442 73.276 48.0442 73.276L43.6807 79.0133Z" fill="#E86A00"/>
<path fill-rule="evenodd" clip-rule="evenodd" d="M20.9142 108.531C20.9142 108.531 16.7844 97.4846 21.9711 92.2863L25.9231 96.2671L20.9142 108.531Z" fill="#FA6109"/>
<path fill-rule="evenodd" clip-rule="evenodd" d="M39.0031 84.0046C39.0031 84.0046 33.2365 83.8725 30.3621 84.4286C27.4883 84.9853 22.121 92.3912 22.121 92.3912L26.0705 96.434C26.0705 96.434 32.5274 89.5966 34.9769 89.5599C37.4265 89.5227 39.0575 87.7403 39.0575 87.7403L39.0031 84.0046Z" fill="#E86A00"/>
<path fill-rule="evenodd" clip-rule="evenodd" d="M48.5896 82.3673C48.5896 82.3673 40.0941 81.6237 38.8884 84.102C37.6822 86.5809 38.9437 87.793 38.9437 87.793C38.9437 87.793 47.0395 86.2986 48.7136 85.7671C50.3877 85.236 48.5896 82.3673 48.5896 82.3673Z" fill="#DE3A08"/>
<path fill-rule="evenodd" clip-rule="evenodd" d="M52.2731 93.968C50.6863 94.0343 38.1189 91.7312 33.5272 98.9386C28.935 106.147 29.3922 111.297 29.3922 111.297C29.3922 111.297 38.8468 109.3 39.1495 103.318C39.1495 103.318 49.5445 103.374 50.6913 100.065C50.6913 100.065 55.2763 103.011 57.3458 99.8473C59.4158 96.6839 52.2731 93.968 52.2731 93.968Z" fill="#DE3A08"/>
<path fill-rule="evenodd" clip-rule="evenodd" d="M42.0411 125.06C42.0411 125.06 35.2968 125.901 33.1574 121.412C31.0186 116.923 31.519 115.726 31.519 115.726C31.519 115.726 29.3669 115.383 29.3796 111.236C29.3924 107.089 37.6258 106.803 37.6258 106.803C37.6258 106.803 39.9935 113.882 38.3297 116.49C38.3297 116.49 44.1877 119.337 42.0411 125.06Z" fill="#FF7D43"/>
<path fill-rule="evenodd" clip-rule="evenodd" d="M126.822 125.814C126.822 125.814 135.32 116.56 131.301 109.914L125.468 112.456L126.822 125.814Z" fill="#DE3A08"/>
<path fill-rule="evenodd" clip-rule="evenodd" d="M115.393 96.434C115.393 96.434 121.86 98.1657 124.872 99.6165C127.884 101.067 131.344 109.789 131.344 109.789L125.57 112.334C125.57 112.334 120.703 103.799 117.988 102.975C115.272 102.152 114.062 99.9434 114.062 99.9434L115.393 96.434Z" fill="#DE3A08"/>
<path fill-rule="evenodd" clip-rule="evenodd" d="M105.18 91.595C105.18 91.595 114.888 93.5914 115.365 96.3595C115.841 99.1276 114.016 99.8904 114.016 99.8904C114.016 99.8904 105.533 95.8698 103.856 94.8244C102.179 93.7796 105.18 91.595 105.18 91.595Z" fill="#DE3A08"/>
<path fill-rule="evenodd" clip-rule="evenodd" d="M162.797 81.2258C162.797 81.2258 162.124 93.0467 155.171 95.7427L153.119 90.4929L162.797 81.2258Z" fill="#DE3A08"/>
<path fill-rule="evenodd" clip-rule="evenodd" d="M135.837 97.046C135.837 97.046 141.17 99.5437 144.094 100.18C147.018 100.817 155.193 95.7847 155.193 95.7847L153.225 90.2125C153.225 90.2125 144.274 94.2414 141.969 93.272C139.663 92.3026 137.379 93.3739 137.379 93.3739L135.837 97.046Z" fill="#DE3A08"/>
<path fill-rule="evenodd" clip-rule="evenodd" d="M126.203 94.8588C126.203 94.8588 133.739 98.8444 135.929 96.9693C138.119 95.0941 137.478 93.4615 137.478 93.4615C137.478 93.4615 129.341 91.7442 127.561 91.5995C125.782 91.4544 126.203 94.8588 126.203 94.8588Z" fill="#DE3A08"/>
<path fill-rule="evenodd" clip-rule="evenodd" d="M113.656 91.5158C113.656 91.5158 123.04 95.0016 126.279 94.6856C126.279 94.6856 129.55 92.8331 127.628 91.3993C125.705 89.9655 111.297 84.6822 111.297 84.6822L113.656 91.5158Z" fill="#DE3A08"/>
<path fill-rule="evenodd" clip-rule="evenodd" d="M143.055 75.6955C143.055 75.6955 149.169 75.2851 152.176 74.3818C155.183 73.4785 160.378 64.6425 160.378 64.6425L155.929 60.4873C155.929 60.4873 149.542 68.7892 146.951 69.0687C144.36 69.3476 142.75 71.5076 142.75 71.5076L143.055 75.6955Z" fill="#DE3A08"/>
<path fill-rule="evenodd" clip-rule="evenodd" d="M133.065 78.4606C133.065 78.4606 141.938 78.4931 143.026 75.6332C144.113 72.7732 142.722 71.5478 142.722 71.5478C142.722 71.5478 134.414 73.9589 132.71 74.7035C131.006 75.4487 133.065 78.4606 133.065 78.4606Z" fill="#DE3A08"/>
<path fill-rule="evenodd" clip-rule="evenodd" d="M119.859 81.9171C119.859 81.9171 130.117 80.4752 132.927 78.5267C132.927 78.5267 135.024 75.0954 132.576 74.7037C130.127 74.3125 114.407 76.5945 114.407 76.5945L119.859 81.9171Z" fill="#DE3A08"/>
<path fill-rule="evenodd" clip-rule="evenodd" d="M97.4709 18.6883C97.4709 18.6883 117.333 17.6473 123.394 29.3759C123.394 29.3759 122.444 33.3252 118.916 33.5272C118.916 33.5272 114.075 26.0816 108.727 23.7697C103.38 21.4584 97.4709 18.6883 97.4709 18.6883Z" fill="#DE3A08"/>
<path fill-rule="evenodd" clip-rule="evenodd" d="M113.351 73.6217C113.351 73.6217 129.465 66.3461 132.726 55.8069C132.726 55.8069 130.826 51.7239 126.854 52.6836L126.562 54.532L122.833 53.9513L122.918 57.4365L118.928 56.4995L118.75 59.6284L114.45 58.6433L114.845 62.1761L110.544 61.1915L111.561 64.8212L106.803 64.7121L113.351 73.6217Z" fill="#FF7525"/>
<path fill-rule="evenodd" clip-rule="evenodd" d="M110.534 63.0255L109.515 59.3816L113.824 60.3704L113.428 56.8239L117.738 57.8127L117.915 54.6727L121.913 55.6131L121.828 52.1149L125.564 52.6972L125.848 49.8909C129.471 49.0138 131.378 53.2734 131.689 53.8757C130.724 52.8869 130.276 52.1021 128.341 53.289L126.959 54.9741L123.009 53.7244L123.094 57.2226L119.096 56.2822L118.918 59.4228L114.609 58.4339L115.005 61.9799L110.696 60.9917L111.715 64.635L106.947 64.5254L105.766 62.9154L110.534 63.0255Z" fill="#FF7D43"/>
<path fill-rule="evenodd" clip-rule="evenodd" d="M132.745 55.6483C132.99 54.1289 138.925 50.9889 134.623 45.9703L126.505 48.7757C126.505 48.7757 126.902 52.2623 127.904 53.9731L132.745 55.6483Z" fill="#FF6309"/>
<path fill-rule="evenodd" clip-rule="evenodd" d="M132.474 55.6483C132.722 54.074 139.237 50.9016 134.402 45.6247L125.468 48.417C125.468 48.417 125.961 52.0437 127.095 53.8355L132.474 55.6483Z" fill="#DE3A08"/>
<path fill-rule="evenodd" clip-rule="evenodd" d="M132.745 55.6483C132.99 54.1289 138.925 50.9889 134.623 45.9703L126.505 48.7757C126.505 48.7757 126.829 52.7183 127.831 54.4291L132.745 55.6483Z" fill="#FF6309"/>
<path fill-rule="evenodd" clip-rule="evenodd" d="M134.8 45.877C134.8 45.877 128.402 42.0198 129.133 37.3742C129.865 32.7292 126.215 29.619 123.875 28.3015C123.875 28.3015 121.106 33.4194 117.335 31.4033C114.397 29.8335 113.733 27.9839 113.733 27.9839L111.838 29.9087L109.872 27.2213L107.175 29.1789L105.487 25.7422L102.708 27.2112L101.74 23.252L98.4358 24.0041L98.2043 21.4298L94.7058 23.4208C94.7058 23.4208 96.887 29.7911 105.87 33.4178C114.853 37.0444 116.017 39.7652 118.18 44.2286C120.343 48.692 126.706 48.7355 126.706 48.7355L134.8 45.877Z" fill="#FF7D43"/>
<path fill-rule="evenodd" clip-rule="evenodd" d="M95.0357 23.9134C95.9096 25.708 98.7478 30.3267 105.87 33.2216C114.853 36.8724 116.017 39.6108 118.18 44.1045C120.343 48.5977 126.706 48.6414 126.706 48.6414L134.8 45.764C134.8 45.764 133.517 46.8396 132.438 47.6281C131.096 48.6089 126.953 50.118 126.953 50.118C126.953 50.118 119.717 49.9801 117.457 45.5744C115.196 41.1687 114.366 37.6985 105.102 34.0589C95.8381 30.4198 94.7058 23.158 94.7058 23.158L95.0357 23.9134Z" fill="#DE3A08"/>
<path fill-rule="evenodd" clip-rule="evenodd" d="M97.8166 18.321C97.8166 18.321 117.443 17.9226 123.74 28.2968C123.74 28.2968 122.9 31.7134 119.415 31.799C119.415 31.799 114.434 25.1873 109.084 23.0368C103.734 20.8852 97.8166 18.321 97.8166 18.321Z" fill="#FA6109"/>
<path fill-rule="evenodd" clip-rule="evenodd" d="M160.125 47.3529C160.125 47.3529 165.253 58.4945 160.284 64.2893L155.884 60.465L160.125 47.3529Z" fill="#FF7D43"/>
<path fill-rule="evenodd" clip-rule="evenodd" d="M143.099 74.313C143.099 74.313 149.234 73.9994 152.243 73.2009C155.253 72.4029 160.378 64.3473 160.378 64.3473L155.868 60.4873C155.868 60.4873 149.541 68.0413 146.942 68.2705C144.343 68.5002 142.75 70.4657 142.75 70.4657L143.099 74.313Z" fill="#FF7C30"/>
<path fill-rule="evenodd" clip-rule="evenodd" d="M133.095 77.0772C133.095 77.0772 141.985 77.2024 143.046 74.4555C144.106 71.708 142.699 70.5109 142.699 70.5109C142.699 70.5109 134.399 72.7486 132.7 73.449C131.001 74.1499 133.095 77.0772 133.095 77.0772Z" fill="#FA6109"/>
<path fill-rule="evenodd" clip-rule="evenodd" d="M120.013 80.1889C120.013 80.1889 130.443 78.9015 133.283 77.0425C133.283 77.0425 135.383 73.736 132.886 73.3296C130.389 72.9232 114.407 74.9639 114.407 74.9639L120.013 80.1889Z" fill="#E86A00"/>
<path fill-rule="evenodd" clip-rule="evenodd" d="M163.143 80.5345C163.143 80.5345 162.482 92.361 155.524 95.0514L153.465 89.7962L163.143 80.5345Z" fill="#FF7D43"/>
<path fill-rule="evenodd" clip-rule="evenodd" d="M136.528 95.6431C136.528 95.6431 141.824 98.1229 144.712 98.7878C147.599 99.4528 155.539 94.848 155.539 94.848L153.491 89.5212C153.491 89.5212 144.77 93.1577 142.483 92.1894C140.197 91.2217 137.971 92.1911 137.971 92.1911L136.528 95.6431Z" fill="#FA6109"/>
<path fill-rule="evenodd" clip-rule="evenodd" d="M127.257 93.3745C127.257 93.3745 134.646 97.4194 136.73 95.6329C138.815 93.8463 138.159 92.239 138.159 92.239C138.159 92.239 130.234 90.3974 128.506 90.2193C126.778 90.0413 127.257 93.3745 127.257 93.3745Z" fill="#FA6109"/>
<path fill-rule="evenodd" clip-rule="evenodd" d="M114.763 89.9775C114.763 89.9775 123.938 93.5514 127.074 93.3117C127.074 93.3117 130.211 91.5816 128.316 90.1508C126.421 88.7206 112.333 83.2996 112.333 83.2996L114.763 89.9775Z" fill="#E86A00"/>
<path fill-rule="evenodd" clip-rule="evenodd" d="M127.519 125.468C127.519 125.468 134.857 116.153 131.503 109.568L126.505 112.164L127.519 125.468Z" fill="#FA6109"/>
<path fill-rule="evenodd" clip-rule="evenodd" d="M117.989 96.434C117.989 96.434 123.442 98.0718 125.974 99.4693C128.507 100.867 131.344 109.421 131.344 109.421L126.434 111.988C126.434 111.988 122.405 103.632 120.116 102.849C117.828 102.067 116.827 99.9039 116.827 99.9039L117.989 96.434Z" fill="#E86A00"/>
<path fill-rule="evenodd" clip-rule="evenodd" d="M109.389 91.9407C109.389 91.9407 117.438 93.7779 117.806 96.4554C118.175 99.1329 116.649 99.8904 116.649 99.8904C116.649 99.8904 109.638 96.08 108.255 95.0841C106.872 94.0882 109.389 91.9407 109.389 91.9407Z" fill="#DE3A08"/>
<path fill-rule="evenodd" clip-rule="evenodd" d="M102.147 101.619C103.645 102.171 116.383 103.851 118.572 112.111C120.761 120.372 118.746 125.122 118.746 125.122C118.746 125.122 110.306 120.315 111.848 114.54C111.848 114.54 101.878 111.394 101.793 107.897C101.793 107.897 96.5019 109.284 95.4893 105.641C94.4761 101.999 102.147 101.619 102.147 101.619Z" fill="#DE3A08"/>
<path fill-rule="evenodd" clip-rule="evenodd" d="M102.321 134.403C102.321 134.403 108.567 137.271 112.004 133.697C115.442 130.124 115.326 128.841 115.326 128.841C115.326 128.841 117.506 129.18 118.764 125.268C120.022 121.356 112.172 118.555 112.172 118.555C112.172 118.555 107.72 124.499 108.525 127.468C108.525 127.468 102.005 128.349 102.321 134.403Z" fill="#FF7D43"/>
<path fill-rule="evenodd" clip-rule="evenodd" d="M104.696 54.0034C104.932 52.4948 103.902 51.0802 102.393 50.8431C100.885 50.6066 99.47 51.6372 99.233 53.1459C98.9965 54.6545 100.027 56.0686 101.536 56.3057C103.044 56.5427 104.459 55.5121 104.696 54.0034Z" fill="#554644"/>
<path fill-rule="evenodd" clip-rule="evenodd" d="M98.8535 60.8767L99.9499 61.1786L101.964 55.2594L100.868 54.957L98.8535 60.8767Z" fill="#554644"/>
<path fill-rule="evenodd" clip-rule="evenodd" d="M117.826 75.8808C118.034 74.1615 118.106 69.9855 113.943 69.7789C113.716 69.7683 113.52 69.6235 113.467 69.4024C113.047 67.6485 110.974 60.3865 106.102 64.0078C105.782 64.2461 105.32 64.0534 105.293 63.6552C105.153 61.5149 104.247 56.9702 98.9209 59.9432C98.6509 60.0941 98.3119 59.9838 98.1989 59.6964C97.5815 58.132 95.4599 54.0306 91.1929 57.5984C90.9418 57.8089 90.5538 57.7226 90.4218 57.4219C89.9425 56.3319 88.5603 54.3247 84.9785 54.8142C83.6591 54.9941 82.7851 55.2787 82.2045 55.5979C82.0069 55.7065 81.7686 55.6691 81.6127 55.5048C81.1585 55.0236 80.4136 54.4845 79.2123 53.9081C75.9534 52.3447 74.0228 53.8312 73.2323 54.7223C73.0146 54.9674 72.6199 54.9306 72.4445 54.6533C69.4751 49.9482 66.2001 53.2019 65.1335 54.5018C64.937 54.7413 64.5812 54.7418 64.3702 54.5157C60.2112 50.0529 57.9571 54.1008 57.1672 56.0952C57.0202 56.4661 56.5214 56.5079 56.2893 56.1827C52.7609 51.2425 48.5635 57.5188 47.6266 59.0593C47.5091 59.2537 47.2775 59.3305 47.0582 59.272C43.0316 58.1927 41.8214 62.1893 41.4929 63.8897C41.4289 64.2216 41.0759 64.3776 40.7664 64.2395C38.7083 63.3205 36.8178 65.9443 36.0195 67.2759C35.8386 67.5784 36.0111 67.9783 36.3585 68.0345C38.1244 68.3219 42.6352 70.2707 45.2562 82.3609C48.5674 97.633 52.2271 100.085 57.6754 102.236C65.414 105.292 72.2096 104.845 74.0779 104.641C74.1664 104.631 74.2438 104.643 74.325 104.679C76.0413 105.446 82.3726 107.956 90.6751 107.42C96.5204 107.043 100.755 105.831 108.585 92.3091C114.784 81.604 119.674 81.1323 121.443 81.4007C121.792 81.4536 122.078 81.125 121.998 80.7819C121.646 79.2698 120.65 76.1932 118.41 76.4361C118.073 76.4734 117.785 76.2166 117.826 75.8808Z" fill="#FF7D43"/>
<path fill-rule="evenodd" clip-rule="evenodd" d="M35.9467 67.5153C37.7785 67.8137 41.1498 70.1735 43.8393 82.8881C47.2361 98.9473 51.0268 101.518 56.6737 103.768C64.705 106.967 71.7638 106.474 73.6931 106.255C73.7799 106.245 73.8551 106.257 73.9359 106.293C75.7053 107.093 82.2724 109.724 90.899 109.139C96.9636 108.727 100.556 106.95 109.518 93.1951C115.761 83.6124 117.609 83.4621 119.899 82.5179C120.522 82.2607 121.927 81.7258 122.011 80.6369C122.011 80.6369 99.2338 72.5489 89.5902 80.5517C86.3158 83.2695 83.6402 85.7929 81.535 87.9395C78.7179 90.8125 73.9799 90.0526 72.2305 86.4286C70.9395 83.7549 69.1405 80.3185 66.6348 75.9474C58.1168 61.0873 36.4062 66.7187 36.4062 66.7187L35.9467 67.5153Z" fill="#DE3A08"/>
<path fill-rule="evenodd" clip-rule="evenodd" d="M122.011 80.78C122.011 80.78 98.6273 72.6591 89.3468 80.2436C86.195 82.8197 83.6213 85.2119 81.5957 87.2477C78.8861 89.9725 74.3157 89.239 72.6198 85.7901C71.3689 83.2458 70.1046 79.656 67.2001 75.8144C55.9046 60.8737 36.4062 66.8541 36.4062 66.8541L35.9467 67.6512C35.9907 67.8372 36.1238 67.9976 36.3321 68.0316C38.0988 68.319 42.6118 70.2679 45.2339 82.359C48.5467 97.6322 52.2081 100.085 57.659 102.236C65.4106 105.295 72.2155 104.843 74.0757 104.64C74.1603 104.63 74.2327 104.642 74.3102 104.677C76.0183 105.441 82.357 107.957 90.674 107.42C96.522 107.043 100.758 105.831 108.592 92.308C114.793 81.6021 119.687 81.1303 121.456 81.3988L122.011 80.78Z" fill="#F16A30"/>
<path fill-rule="evenodd" clip-rule="evenodd" d="M102.646 53.3756C102.261 53.7131 101.72 53.6104 101.439 53.1483C101.158 52.6849 101.243 52.0369 101.629 51.6994C102.014 51.3625 102.554 51.464 102.836 51.9267C103.116 52.39 103.032 53.0381 102.646 53.3756Z" fill="white"/>
<path fill-rule="evenodd" clip-rule="evenodd" d="M89.6013 67.0545C81.7083 67.0545 69.0645 65.4128 66.4522 61.7117C65.6083 60.5165 70.8891 59.1047 76.9246 59.1047C78.7064 59.1047 80.5533 59.2277 82.3284 59.5156C90.1173 60.778 96.7646 64.0234 96.0332 66.073C95.8039 66.7137 93.1938 67.0545 89.6013 67.0545Z" fill="#FFA073"/>
</svg>
