<svg width="38" height="38" viewBox="0 0 38 38" fill="none" xmlns="http://www.w3.org/2000/svg">
<path d="M19 4.90833L11.1625 12.7458C9.61259 14.2959 8.55711 16.2708 8.12955 18.4207C7.70199 20.5706 7.92155 22.799 8.76045 24.8242C9.59935 26.8493 11.0199 28.5803 12.8426 29.7981C14.6652 31.0159 16.808 31.6659 19 31.6659C21.192 31.6659 23.3348 31.0159 25.1575 29.7981C26.9801 28.5803 28.4007 26.8493 29.2396 24.8242C30.0785 22.799 30.298 20.5706 29.8705 18.4207C29.4429 16.2708 28.3874 14.2959 26.8375 12.7458L19 4.90833ZM19 0.430664L29.0763 10.507C31.0692 12.4999 32.4264 15.039 32.9762 17.8032C33.526 20.5675 33.2438 23.4326 32.1653 26.0365C31.0867 28.6403 29.2603 30.8659 26.9169 32.4317C24.5735 33.9975 21.8184 34.8332 19 34.8332C16.1816 34.8332 13.4265 33.9975 11.0831 32.4317C8.73975 30.8659 6.91329 28.6403 5.83474 26.0365C4.75619 23.4326 4.47398 20.5675 5.0238 17.8032C5.57363 15.039 6.93079 12.4999 8.92367 10.507L19 0.430664ZM11.0833 20.5833H26.9167C26.9167 22.683 26.0826 24.6966 24.5979 26.1813C23.1133 27.6659 21.0996 28.5 19 28.5C16.9004 28.5 14.8867 27.6659 13.4021 26.1813C11.9174 24.6966 11.0833 22.683 11.0833 20.5833Z" fill="url(#paint0_linear_0_471)"/>
<defs>
<linearGradient id="paint0_linear_0_471" x1="19" y1="0.430664" x2="19" y2="34.8332" gradientUnits="userSpaceOnUse">
<stop stop-color="#1B18F9"/>
<stop offset="0.463542" stop-color="#1B18F9"/>
<stop offset="1" stop-color="#E146AD"/>
</linearGradient>
</defs>
</svg>
